<svg width="128" height="128" viewBox="0 0 128 128" fill="none" xmlns="http://www.w3.org/2000/svg">
<g clip-path="url(#clip0_12_11)">
<path d="M128 0H0V128H128V0Z" fill="url(#paint0_radial_12_11)"/>
<path d="M128 0H0V128H128V0Z" fill="url(#paint1_radial_12_11)"/>
<path d="M64 116C94.9279 116 120 90.9279 120 60C120 29.0721 94.9279 4 64 4C33.0721 4 8 29.0721 8 60C8 90.9279 33.0721 116 64 116Z" fill="url(#paint2_radial_12_11)"/>
<path d="M26.4 46.3L17.6 36.5" stroke="#8E6BC4" stroke-width="2" stroke-linecap="round"/>
<path d="M30 39L23.3 27.6" stroke="#8E6BC4" stroke-width="2" stroke-linecap="round"/>
<path d="M34.9 32.6L30.7 20" stroke="#8E6BC4" stroke-width="2" stroke-linecap="round"/>
<path d="M41.1 27.2L39.5 14.1" stroke="#8E6BC4" stroke-width="2" stroke-linecap="round"/>
<path d="M48.2 23.3L49.3 10.1" stroke="#8E6BC4" stroke-width="2" stroke-linecap="round"/>
<path d="M55.9 20.8L59.7 8.2" stroke="#8E6BC4" stroke-width="2" stroke-linecap="round"/>
<path d="M64 20L70.2 8.39999" stroke="#8E6BC4" stroke-width="2" stroke-linecap="round"/>
<path d="M72.1 20.8L80.5 10.7" stroke="#8E6BC4" stroke-width="2" stroke-linecap="round"/>
<path d="M79.8 23.3L90.2 15.1" stroke="#8E6BC4" stroke-width="2" stroke-linecap="round"/>
<path d="M86.9 27.2L98.7 21.3" stroke="#8E6BC4" stroke-width="2" stroke-linecap="round"/>
<path d="M93.1 32.6L105.8 29.1" stroke="#8E6BC4" stroke-width="2" stroke-linecap="round"/>
<path d="M98 39L111.2 38.2" stroke="#8E6BC4" stroke-width="2" stroke-linecap="round"/>
<path d="M101.6 46.3L114.6 48.2" stroke="#8E6BC4" stroke-width="2" stroke-linecap="round"/>
<path d="M8 128C12 110 24 104 22 92C20 82 10 84 12 94" stroke="#0B0A0D" stroke-width="10" stroke-linecap="round"/>
<path d="M8 128C12 110 24 104 22 92C20 82 10 84 12 94" stroke="#2A1D38" stroke-width="7" stroke-linecap="round"/>
<path d="M8 128C12 110 24 104 22 92C20 82 10 84 12 94" stroke="#8E6BC4" stroke-opacity="0.8" stroke-width="1.2" stroke-linecap="round"/>
<path d="M34 128C36 114 44 108 42 98" stroke="#0B0A0D" stroke-width="10" stroke-linecap="round"/>
<path d="M34 128C36 114 44 108 42 98" stroke="#2A1D38" stroke-width="7" stroke-linecap="round"/>
<path d="M34 128C36 114 44 108 42 98" stroke="#8E6BC4" stroke-opacity="0.8" stroke-width="1.2" stroke-linecap="round"/>
<path d="M120 128C116 110 104 104 106 92C108 82 118 84 116 94" stroke="#0B0A0D" stroke-width="10" stroke-linecap="round"/>
<path d="M120 128C116 110 104 104 106 92C108 82 118 84 116 94" stroke="#2A1D38" stroke-width="7" stroke-linecap="round"/>
<path d="M120 128C116 110 104 104 106 92C108 82 118 84 116 94" stroke="#8E6BC4" stroke-opacity="0.8" stroke-width="1.2" stroke-linecap="round"/>
<path d="M94 128C92 114 84 108 86 98" stroke="#0B0A0D" stroke-width="10" stroke-linecap="round"/>
<path d="M94 128C92 114 84 108 86 98" stroke="#2A1D38" stroke-width="7" stroke-linecap="round"/>
<path d="M94 128C92 114 84 108 86 98" stroke="#8E6BC4" stroke-opacity="0.8" stroke-width="1.2" stroke-linecap="round"/>
<path d="M64 100C86.0914 100 104 82.0914 104 60C104 37.9086 86.0914 20 64 20C41.9086 20 24 37.9086 24 60C24 82.0914 41.9086 100 64 100Z" fill="#231A2C" stroke="#8E6BC4" stroke-width="2"/>
<path d="M64 94C82.7777 94 98 78.7777 98 60C98 41.2223 82.7777 26 64 26C45.2223 26 30 41.2223 30 60C30 78.7777 45.2223 94 64 94Z" fill="#C8BFAE" stroke="#0B0A0D" stroke-width="2"/>
<path d="M36 46C42 36 52 30 64 30" stroke="#FFF6DC" stroke-opacity="0.5" stroke-width="1.4" stroke-linecap="round"/>
<path d="M30 58C36 56 40 60 44 58" stroke="#A23A3A" stroke-opacity="0.8" stroke-width="1.1" stroke-linecap="round"/>
<path d="M32 70C38 70 42 66 45 68" stroke="#A23A3A" stroke-opacity="0.8" stroke-width="1.1" stroke-linecap="round"/>
<path d="M98 56C92 55 88 59 84 57" stroke="#A23A3A" stroke-opacity="0.8" stroke-width="1.1" stroke-linecap="round"/>
<path d="M96 70C90 71 86 66 83 68" stroke="#A23A3A" stroke-opacity="0.8" stroke-width="1.1" stroke-linecap="round"/>
<path d="M64 26C62 32 66 34 64 38" stroke="#A23A3A" stroke-opacity="0.8" stroke-width="1.1" stroke-linecap="round"/>
<path d="M64 80C75.0457 80 84 71.0457 84 60C84 48.9543 75.0457 40 64 40C52.9543 40 44 48.9543 44 60C44 71.0457 52.9543 80 64 80Z" fill="url(#paint3_radial_12_11)" stroke="#0B0A0D" stroke-width="1.6"/>
<path d="M71 60H81" stroke="#B9A6D8" stroke-opacity="0.6" stroke-width="0.9"/>
<path d="M70.1 63.5L78.7 68.5" stroke="#B9A6D8" stroke-opacity="0.6" stroke-width="0.9"/>
<path d="M67.5 66.1L72.5 74.7" stroke="#B9A6D8" stroke-opacity="0.6" stroke-width="0.9"/>
<path d="M64 67V77" stroke="#B9A6D8" stroke-opacity="0.6" stroke-width="0.9"/>
<path d="M60.5 66.1L55.5 74.7" stroke="#B9A6D8" stroke-opacity="0.6" stroke-width="0.9"/>
<path d="M57.9 63.5L49.3 68.5" stroke="#B9A6D8" stroke-opacity="0.6" stroke-width="0.9"/>
<path d="M57 60H47" stroke="#B9A6D8" stroke-opacity="0.6" stroke-width="0.9"/>
<path d="M57.9 56.5L49.3 51.5" stroke="#B9A6D8" stroke-opacity="0.6" stroke-width="0.9"/>
<path d="M60.5 53.9L55.5 45.3" stroke="#B9A6D8" stroke-opacity="0.6" stroke-width="0.9"/>
<path d="M64 53V43" stroke="#B9A6D8" stroke-opacity="0.6" stroke-width="0.9"/>
<path d="M67.5 53.9L72.5 45.3" stroke="#B9A6D8" stroke-opacity="0.6" stroke-width="0.9"/>
<path d="M70.1 56.5L78.7 51.5" stroke="#B9A6D8" stroke-opacity="0.6" stroke-width="0.9"/>
<path d="M64 44C67.5 50 67.5 70 64 76C60.5 70 60.5 50 64 44Z" fill="#0B0A0D"/>
<path d="M71 55C72.6569 55 74 53.6569 74 52C74 50.3431 72.6569 49 71 49C69.3431 49 68 50.3431 68 52C68 53.6569 69.3431 55 71 55Z" fill="#FFF6DC" fill-opacity="0.9"/>
</g>
<defs>
<radialGradient id="paint0_radial_12_11" cx="0" cy="0" r="1" gradientUnits="userSpaceOnUse" gradientTransform="translate(64 46) scale(92)">
<stop stop-color="#2A1840"/>
<stop offset="0.55" stop-color="#140D1C"/>
<stop offset="1" stop-color="#0F0E11"/>
</radialGradient>
<radialGradient id="paint1_radial_12_11" cx="0" cy="0" r="1" gradientUnits="userSpaceOnUse" gradientTransform="translate(64 60) scale(84)">
<stop stop-color="#8E6BC4" stop-opacity="0.25"/>
<stop offset="1" stop-color="#8E6BC4" stop-opacity="0"/>
</radialGradient>
<radialGradient id="paint2_radial_12_11" cx="0" cy="0" r="1" gradientUnits="userSpaceOnUse" gradientTransform="translate(64 60) scale(56)">
<stop stop-color="#8E6BC4" stop-opacity="0.35"/>
<stop offset="1" stop-color="#8E6BC4" stop-opacity="0"/>
</radialGradient>
<radialGradient id="paint3_radial_12_11" cx="0" cy="0" r="1" gradientUnits="userSpaceOnUse" gradientTransform="translate(64 60) scale(20)">
<stop stop-color="#E0C8FF"/>
<stop offset="0.45" stop-color="#8E6BC4"/>
<stop offset="1" stop-color="#2A1840"/>
</radialGradient>
<clipPath id="clip0_12_11">
<rect width="128" height="128" fill="white"/>
</clipPath>
</defs>
</svg>
