<svg width="240" height="248" viewBox="0 0 240 248" fill="none" xmlns="http://www.w3.org/2000/svg">
<g>
<path d="M36 236V112C36 89.7218 44.85 68.3561 60.603 52.603C76.3561 36.85 97.7218 28 120 28C142.278 28 163.644 36.85 179.397 52.603C195.15 68.3561 204 89.7218 204 112V236H184V112C184 95.0261 177.257 78.7475 165.255 66.7452C153.253 54.7428 136.974 48 120 48C103.026 48 86.7475 54.7428 74.7452 66.7452C62.7428 78.7475 56 95.0261 56 112V236H36Z" fill="url(#paint0_linear_12_11)" stroke="#5A5162" stroke-width="1.6" stroke-linejoin="round"/>
<path d="M56 236V112C56 95.0261 62.7428 78.7475 74.7452 66.7452C86.7475 54.7428 103.026 48 120 48C136.974 48 153.253 54.7428 165.255 66.7452C177.257 78.7475 184 95.0261 184 112V236H56Z" fill="url(#paint1_linear_12_11)"/>
<path d="M181.8 95.4L201.1 90.3" stroke="#5A5162" stroke-width="1.2"/>
<path d="M175.4 80L192.7 70" stroke="#5A5162" stroke-width="1.2"/>
<path d="M165.3 66.7L179.4 52.6" stroke="#5A5162" stroke-width="1.2"/>
<path d="M152 56.6L162 39.3" stroke="#5A5162" stroke-width="1.2"/>
<path d="M136.6 50.2L141.7 30.9" stroke="#5A5162" stroke-width="1.2"/>
<path d="M120 48V28" stroke="#5A5162" stroke-width="1.2"/>
<path d="M103.4 50.2L98.3 30.9" stroke="#5A5162" stroke-width="1.2"/>
<path d="M88 56.6L78 39.3" stroke="#5A5162" stroke-width="1.2"/>
<path d="M74.7 66.7L60.6 52.6" stroke="#5A5162" stroke-width="1.2"/>
<path d="M64.6 80L47.3 70" stroke="#5A5162" stroke-width="1.2"/>
<path d="M58.2 95.4L38.9 90.3" stroke="#5A5162" stroke-width="1.2"/>
<path d="M36 132H56M184 132H204" stroke="#5A5162" stroke-width="1.2"/>
<path d="M36 156H56M184 156H204" stroke="#5A5162" stroke-width="1.2"/>
<path d="M36 180H56M184 180H204" stroke="#5A5162" stroke-width="1.2"/>
<path d="M36 204H56M184 204H204" stroke="#5A5162" stroke-width="1.2"/>
<path d="M111.9 50.5L108 20.8H132L128.1 50.5H111.9Z" fill="#312C37" stroke="#B89A5E" stroke-width="1.6" stroke-linejoin="round"/>
<path d="M120 33C121.6 35 122.3 36.4 122.3 37.8C122.3 39.1 121.3 40.1 120 40.1C118.7 40.1 117.7 39.1 117.7 37.8C117.7 36.4 118.4 35.1 120 33Z" fill="#B89A5E"/>
<path d="M56 232V112C56 95.0261 62.7428 78.7475 74.7452 66.7452C86.7475 54.7428 103.026 48 120 48C136.974 48 153.253 54.7428 165.255 66.7452C177.257 78.7475 184 95.0261 184 112V232" stroke="#B89A5E" stroke-opacity="0.55" stroke-width="1.4"/>
<path d="M60 236H180" stroke="#6C5A3A" stroke-opacity="0.75" stroke-width="1.3"/>
<path d="M71.2 214H168.8" stroke="#6C5A3A" stroke-opacity="0.61" stroke-width="1.3"/>
<path d="M80.3 196H159.7" stroke="#6C5A3A" stroke-opacity="0.5" stroke-width="1.3"/>
<path d="M88 181H152" stroke="#6C5A3A" stroke-opacity="0.4" stroke-width="1.3"/>
<path d="M94.1 169H145.9" stroke="#6C5A3A" stroke-opacity="0.32" stroke-width="1.3"/>
<path d="M99.2 159H140.8" stroke="#6C5A3A" stroke-opacity="0.26" stroke-width="1.3"/>
<path d="M103.2 151H136.8" stroke="#6C5A3A" stroke-opacity="0.21" stroke-width="1.3"/>
<path d="M106.3 145H133.7" stroke="#6C5A3A" stroke-opacity="0.17" stroke-width="1.3"/>
<path d="M58 236L114 140M182 236L126 140" stroke="#3B3542" stroke-width="1.2"/>
<path d="M120 208C177.438 208 224 161.438 224 104C224 46.5624 177.438 0 120 0C62.5624 0 16 46.5624 16 104C16 161.438 62.5624 208 120 208Z" fill="url(#paint2_radial_12_11)"/>
<path d="M150 100H172" stroke="#F3D27A" stroke-opacity="0.5" stroke-width="1.2" stroke-linecap="round"/>
<path d="M150.9 108.3L162.5 111.4" stroke="#F3D27A" stroke-opacity="0.3" stroke-width="0.8" stroke-linecap="round"/>
<path d="M146 115L165 126" stroke="#F3D27A" stroke-opacity="0.5" stroke-width="1.2" stroke-linecap="round"/>
<path d="M142.6 122.6L151.1 131.1" stroke="#F3D27A" stroke-opacity="0.3" stroke-width="0.8" stroke-linecap="round"/>
<path d="M135 126L146 145" stroke="#F3D27A" stroke-opacity="0.5" stroke-width="1.2" stroke-linecap="round"/>
<path d="M128.3 130.9L131.4 142.5" stroke="#F3D27A" stroke-opacity="0.3" stroke-width="0.8" stroke-linecap="round"/>
<path d="M120 130V152" stroke="#F3D27A" stroke-opacity="0.5" stroke-width="1.2" stroke-linecap="round"/>
<path d="M111.7 130.9L108.6 142.5" stroke="#F3D27A" stroke-opacity="0.3" stroke-width="0.8" stroke-linecap="round"/>
<path d="M105 126L94 145" stroke="#F3D27A" stroke-opacity="0.5" stroke-width="1.2" stroke-linecap="round"/>
<path d="M97.4 122.6L88.9 131.1" stroke="#F3D27A" stroke-opacity="0.3" stroke-width="0.8" stroke-linecap="round"/>
<path d="M94 115L75 126" stroke="#F3D27A" stroke-opacity="0.5" stroke-width="1.2" stroke-linecap="round"/>
<path d="M89.1 108.3L77.5 111.4" stroke="#F3D27A" stroke-opacity="0.3" stroke-width="0.8" stroke-linecap="round"/>
<path d="M90 100H68" stroke="#F3D27A" stroke-opacity="0.5" stroke-width="1.2" stroke-linecap="round"/>
<path d="M89.1 91.7L77.5 88.6" stroke="#F3D27A" stroke-opacity="0.3" stroke-width="0.8" stroke-linecap="round"/>
<path d="M94 85L75 74" stroke="#F3D27A" stroke-opacity="0.5" stroke-width="1.2" stroke-linecap="round"/>
<path d="M97.4 77.4L88.9 68.9" stroke="#F3D27A" stroke-opacity="0.3" stroke-width="0.8" stroke-linecap="round"/>
<path d="M105 74L94 55" stroke="#F3D27A" stroke-opacity="0.5" stroke-width="1.2" stroke-linecap="round"/>
<path d="M111.7 69.1L108.6 57.5" stroke="#F3D27A" stroke-opacity="0.3" stroke-width="0.8" stroke-linecap="round"/>
<path d="M120 70V48" stroke="#F3D27A" stroke-opacity="0.5" stroke-width="1.2" stroke-linecap="round"/>
<path d="M128.3 69.1L131.4 57.5" stroke="#F3D27A" stroke-opacity="0.3" stroke-width="0.8" stroke-linecap="round"/>
<path d="M135 74L146 55" stroke="#F3D27A" stroke-opacity="0.5" stroke-width="1.2" stroke-linecap="round"/>
<path d="M142.6 77.4L151.1 68.9" stroke="#F3D27A" stroke-opacity="0.3" stroke-width="0.8" stroke-linecap="round"/>
<path d="M146 85L165 74" stroke="#F3D27A" stroke-opacity="0.5" stroke-width="1.2" stroke-linecap="round"/>
<path d="M150.9 91.7L162.5 88.6" stroke="#F3D27A" stroke-opacity="0.3" stroke-width="0.8" stroke-linecap="round"/>
<path d="M150 222C160 222 164 214 158 210C154 207 148 210 150 216" stroke="#B89A5E" stroke-width="3" stroke-linecap="round"/>
<path d="M150 222C160 222 164 214 158 210C154 207 148 210 150 216" stroke="#2A1D0C" stroke-width="0.8" stroke-linecap="round"/>
<path d="M84 224C84 219 156 219 156 224L150 232C146 235 94 235 90 232L84 224Z" fill="#8A7040" stroke="#2A1D0C" stroke-width="1.6" stroke-linejoin="round"/>
<path d="M88 223.5C96 221.5 144 221.5 152 223.5" stroke="#E6CF96" stroke-width="1.2" stroke-linecap="round"/>
<path d="M100 216H140V222H100V216Z" fill="#B89A5E" stroke="#2A1D0C" stroke-width="1.4" stroke-linejoin="round"/>
<path d="M106 131C110 127 130 127 134 131V217H106V131Z" fill="url(#paint3_linear_12_11)" stroke="#2A1D0C" stroke-width="1.8" stroke-linejoin="round"/>
<g>
<path d="M105.1 131.2V153C105.1 156.2 107.2 158.4 110 158.4C112.8 158.4 114.6 156.2 114.6 153V129.2" fill="#F6EEDB"/>
<path d="M105.1 131.2V153C105.1 156.2 107.2 158.4 110 158.4C112.8 158.4 114.6 156.2 114.6 153V129.2" stroke="#2A1D0C" stroke-width="1.6" stroke-linejoin="round"/>
</g>
<g>
<path d="M128 129.4V139C128 141 129.4 142.6 131.2 142.6C133 142.6 134.9 141 134.9 139V131.2" fill="#F6EEDB"/>
<path d="M128 129.4V139C128 141 129.4 142.6 131.2 142.6C133 142.6 134.9 141 134.9 139V131.2" stroke="#2A1D0C" stroke-width="1.4" stroke-linejoin="round"/>
</g>
<path d="M113 204C113 208 116 210 118 210" stroke="#B8A888" stroke-width="1.2" stroke-linecap="round"/>
<path d="M129 150V214" stroke="#A8987A" stroke-opacity="0.7" stroke-width="1.4"/>
<path d="M120 129.5V122.5" stroke="#2A1D0C" stroke-width="2" stroke-linecap="round"/>
<path d="M120 76C127.5 85 131 91.5 131 98.5C131 106 126 112 120 112C114 112 109 106 109 98.5C109 91.5 113 85 120 76Z" fill="#F0B84A" stroke="#2A1D0C" stroke-width="1.6" stroke-linejoin="round"/>
<path d="M120 88C123.6 92.4 125.2 96 125.2 99.6C125.2 103.3 122.9 106.2 120 106.2C117.1 106.2 114.8 103.3 114.8 99.6C114.8 96 116.6 92.6 120 88Z" fill="#F3D27A"/>
<path d="M120 96C121.6 98 122.3 99.6 122.3 101.2C122.3 102.8 121.3 104 120 104C118.7 104 117.7 102.8 117.7 101.2C117.7 99.6 118.5 98.1 120 96Z" fill="#FFF6DC"/>
<path d="M142 71.4C142.773 71.4 143.4 70.7732 143.4 70C143.4 69.2268 142.773 68.6 142 68.6C141.227 68.6 140.6 69.2268 140.6 70C140.6 70.7732 141.227 71.4 142 71.4Z" fill="#F3D27A" fill-opacity="0.8"/>
<path d="M98 79.1C98.6075 79.1 99.1 78.6075 99.1 78C99.1 77.3925 98.6075 76.9 98 76.9C97.3925 76.9 96.9 77.3925 96.9 78C96.9 78.6075 97.3925 79.1 98 79.1Z" fill="#F3D27A" fill-opacity="0.6"/>
<path d="M150 94.9C150.497 94.9 150.9 94.4971 150.9 94C150.9 93.503 150.497 93.1 150 93.1C149.503 93.1 149.1 93.503 149.1 94C149.1 94.4971 149.503 94.9 150 94.9Z" fill="#F3D27A" fill-opacity="0.5"/>
<path d="M92 107C92.5523 107 93 106.552 93 106C93 105.448 92.5523 105 92 105C91.4477 105 91 105.448 91 106C91 106.552 91.4477 107 92 107Z" fill="#F3D27A" fill-opacity="0.45"/>
<path d="M134 58.8C134.442 58.8 134.8 58.4418 134.8 58C134.8 57.5582 134.442 57.2 134 57.2C133.558 57.2 133.2 57.5582 133.2 58C133.2 58.4418 133.558 58.8 134 58.8Z" fill="#F3D27A" fill-opacity="0.5"/>
<path d="M12 236H228" stroke="#5A5162" stroke-width="1.4" stroke-linecap="round"/>
<path d="M40 241H200" stroke="#3B3542" stroke-linecap="round"/>
</g>
<defs>
<linearGradient id="paint0_linear_12_11" x1="120" y1="28" x2="120" y2="236" gradientUnits="userSpaceOnUse">
<stop stop-color="#27232C"/>
<stop offset="1" stop-color="#3A2F28"/>
</linearGradient>
<linearGradient id="paint1_linear_12_11" x1="120" y1="48" x2="120" y2="236" gradientUnits="userSpaceOnUse">
<stop stop-color="#08070A"/>
<stop offset="0.55" stop-color="#110F14"/>
<stop offset="1" stop-color="#2A2014"/>
</linearGradient>
<radialGradient id="paint2_radial_12_11" cx="0" cy="0" r="1" gradientUnits="userSpaceOnUse" gradientTransform="translate(120 104) scale(104)">
<stop stop-color="#F3D27A" stop-opacity="0.55"/>
<stop offset="0.25" stop-color="#F0B84A" stop-opacity="0.22"/>
<stop offset="1" stop-color="#F0B84A" stop-opacity="0"/>
</radialGradient>
<linearGradient id="paint3_linear_12_11" x1="106" y1="-4.35047e-06" x2="134" y2="-4.35047e-06" gradientUnits="userSpaceOnUse">
<stop stop-color="#F6EEDB"/>
<stop offset="0.6" stop-color="#E8DCC0"/>
<stop offset="1" stop-color="#A8987A"/>
</linearGradient>
</defs>
</svg>
